General                          : ChattChitto RG - Movies
==========
Complete name                    : The Kingdom Of Heaven Directors Cut 2005 BDRip.MP4
Format                           : MPEG-4
Format profile                   : Base Media
Codec ID                         : isom
File size                        : 2.98 GiB
Duration                         : 3h 9mn
Overall bit rate                 : 2 254 Kbps
Encoded date                     : UTC 2010-03-24 05:51:07

Video
==========
ID                               : 1
Format                           : AVC
Format/Info                      : Advanced Video Codec
Format profile                   : High@L3.1
Format settings, CABAC           : Yes
Format settings, ReFrames        : 3 frames
Codec ID                         : avc1
Codec ID/Info                    : Advanced Video Coding
Duration                         : 3h 9mn
Bit rate mode                    : Variable
Bit rate                         : 2 000 Kbps
Maximum bit rate                 : 9 593 Kbps
Width                            : 1 280 pixels
Height                           : 544 pixels
Display aspect ratio             : 2.35:1
Frame rate mode                  : Constant
Frame rate                       : 23.976 fps
Resolution                       : 8 bits
Colorimetry                      : 4:2:0
Scan type                        : Progressive
Bits/(Pixel*Frame)               : 0.120
Stream size                      : 2.65 GiB (89%)
Writing library                  : x264 core 76 r1271 496d79d
Encoded date                     : UTC 2010-03-23 10:35:52

Audio
==========
ID                               : 2
Format                           : AAC
Format/Info                      : Advanced Audio Codec
Format version                   : Version 4
Format profile                   : LC
Format settings, SBR             : No
Codec ID                         : 40
Duration                         : 3h 9mn
Bit rate mode                    : Variable
Bit rate                         : 251 Kbps
Maximum bit rate                 : 337 Kbps
Channel(s)                       : 6 channels
Channel positions                : Front: L C R, Side: L R, LFE
Sampling rate                    : 48.0 KHz
Stream size                      : 340 MiB (11%)
Encoded date                     : UTC 2010-03-24 05:51:54

Subtitles                        : By Request @ ChattChitto-RG@chattchitto.net


Special Notes:
===============
This film was ripped from a retail Blu-Ray disk. 
The files were split into 2 on the disk, I merged them into 1 for this release.

Subtitles By Request @ ChattChitto-RG@chattchitto.net
If you want The subtitles for this release,e-mail me, Recalled2Life (R2L) at 
ChattChitto-RG@chattchitto.net requesting them.
They are in 2 files as why I did not release them, I released the movie in 1 file.

English | French | Spanish [.SUP]

Disk 1 would end at 1:30:48

----------------------------------------------------
IMDB Link: http://www.imdb.com/title/tt0320661/
----------------------------------------------------


Screen Shots:
==============
http://bayimg.com/DalBfaACI
http://bayimg.com/DALBGaacI
http://bayimg.com/DalBhaACi
http://bayimg.com/dalbiAACI
http://bayimg.com/dAlBJaacI



Plot:
======
Kingdom of Heaven is an epic adventure about a common man who finds himself thrust 
into a decades long war. A stranger in a strange land, he serves a doomed king, falls in love with an exotic queen and rises to knighthood. Ultimately he must protect the people of Jerusalem from overwhelming forces – while striving to keep a fragile peace.


Release Info:
==============
original name .... : The Kingdom Of Heaven Directors Cut 2005 BDRip.MP4
ripper.............: Recalled2Life (R2L)
encoder............: Recalled2Life (R2L)
video codec........: H264/.MP4                   
video bitrate......: 2000 Kbps                           
audio codec........: AAC-LC	                                        
aspect ratio.......: 2.35:1                              
resolution.........: 1280 x 544                             
genre..............: Action | Adventure | History         
runtime............: 3h 9mn
language...........: English                              
subtitles..........: By Request @ ChattChitto-RG@chattchitto.net
2ch Audio..........: 2ch Audio for XBox Viewers   



Source:
========
The Kingdom Of Heaven Director's Cut Blu-Ray 1080p MPEG-2/DTS-HD 5.1 Master Audio (2 files=[38.9 GB])


Notes:
=======
This film was ripped from a retail Blu-Ray disk. 
The files were split into 2 on the disk, I merged them into 1 for this release.

ChattChitto RG Encourages Burning this Film with ConvertXtoDVD.
Enhanced and Filtered for your viewing pleasure ;)

Subtitles:
http://www.mirrorcreator.com/files/0AAAHFNF/en_Directors_Cut_2005_BDRip_Subtitles_Recalled2Life__ChattChitto_RG_.rar_links